# This file uses centimeters as units for non-parametric coordinates.

mtllib A-Type_ROOF_LEGS.mtl
g default
v -75.290729 12.068153 388.633798
v -75.245508 11.592205 388.633798
v -73.996081 11.902572 388.633798
v -73.996081 12.401744 388.633798
v -82.424937 10.229894 388.114795
v -82.424937 10.872756 388.114795
v -63.214175 15.822759 388.114795
v -63.214175 15.179900 388.114795
v -82.424937 10.872756 388.746625
v -82.424937 10.229894 388.746625
v -63.214175 15.179900 388.746625
v -63.214175 15.822759 388.746625
v -73.369995 12.563066 388.633798
v -73.369995 12.563066 388.227622
v -73.996081 12.401744 388.227622
v -75.290729 12.068153 388.227622
v -79.284485 11.039088 388.269493
v -80.556059 10.711444 388.269493
v -43.854563 -11.736414 388.746625
v -43.854563 -11.736414 388.114795
v -43.282835 -11.736416 388.114795
v -43.282835 -11.736416 388.746625
v -73.996081 11.902572 388.227622
v -52.251945 12.131353 388.227622
v -52.251945 12.131353 388.633798
v -53.007492 12.768971 388.633798
v -53.007492 12.768971 388.227622
v -43.928168 10.624337 388.114795
v -43.356440 10.475753 388.114795
v -43.356440 10.475753 388.746625
v -43.928168 10.624337 388.746625
v -43.928168 11.267198 388.114795
v -43.928168 11.267198 388.746625
v -51.091295 11.846771 388.227622
v -51.091295 11.846771 388.633798
v -52.240108 12.587708 388.633798
v -50.950746 12.283146 388.633798
v -52.240108 12.587708 388.227622
v -43.920388 8.260740 388.588948
v -46.986918 11.346847 388.588948
v -46.986918 11.346847 388.272472
v -43.920388 8.260740 388.272472
v -45.776770 11.060997 388.272472
v -43.923466 9.195862 388.272472
v -43.923466 9.195862 388.588948
v -45.776770 11.060997 388.588948
v -43.356440 11.118611 388.114795
v -42.248514 10.175351 388.114795
v -42.248514 10.175351 388.746625
v -42.248514 10.818210 388.114795
v -43.356440 11.118611 388.746625
v -42.248514 10.818210 388.746625
v -51.602669 12.437138 388.227622
v -50.950746 12.283146 388.227622
v -50.950746 12.283146 388.233957
v -75.245508 11.592205 388.227622
v -82.407965 7.904523 388.269493
v -79.284485 11.039088 388.591927
v -82.407965 7.904523 388.591927
v -80.556059 10.711444 388.591927
v -82.414837 8.846070 388.591927
v -82.414837 8.846070 388.269493
v -83.056772 10.708129 388.746625
v -83.056772 10.708129 388.114795
v -83.056772 10.065269 388.746625
v -83.056772 10.065269 388.114795
v -84.162174 10.449414 388.114795
v -84.162174 10.449414 388.746625
v -84.162174 9.806556 388.746625
v -84.162174 9.806556 388.114795
v -82.893387 -12.154400 388.746625
v -82.261559 -12.154400 388.746625
v -82.261559 -12.154400 388.114795
v -82.893387 -12.154400 388.114795
vt 0.375000 0.177572
vt 0.375000 0.000000
vt 0.375000 0.000000
vt 0.375000 0.190767
vt 0.625000 0.500000
vt 0.625000 0.500000
vt 0.625000 0.500000
vt 0.625000 0.500000
vt 0.625000 0.250000
vt 0.625000 0.250000
vt 0.625000 0.250000
vt 0.625000 0.250000
vt 0.625000 0.294643
vt 0.625000 0.455357
vt 0.625000 0.455357
vt 0.625000 0.455357
vt 0.625000 0.438790
vt 0.625000 0.438790
vt 0.625000 0.250000
vt 0.625000 0.500000
vt 0.625000 0.500000
vt 0.625000 0.250000
vt 0.375000 0.750000
vt 0.625000 0.750000
vt 0.625000 1.000000
vt 0.375000 1.000000
vt 0.382193 0.250000
vt 0.616128 0.250000
vt 0.616128 0.500000
vt 0.382193 0.500000
vt 0.625000 0.500000
vt 0.625000 0.500000
vt 0.625000 0.250000
vt 0.625000 0.250000
vt 0.625000 0.500000
vt 0.625000 0.250000
vt 0.625000 0.000000
vt 0.875000 0.000000
vt 0.875000 0.000000
vt 0.625000 0.000000
vt 0.625000 0.176764
vt 0.625000 0.179913
vt 0.625000 0.573236
vt 0.375000 0.559233
vt 0.375000 0.005244
vt 0.375000 0.245705
vt 0.125000 0.245705
vt 0.125000 0.005244
vt 0.625000 0.563849
vt 0.625000 0.709175
vt 0.375000 0.744756
vt 0.375000 0.504295
vt 0.625000 0.040825
vt 0.625000 0.186151
vt 0.875000 0.040825
vt 0.875000 0.186151
vt 0.625000 0.500000
vt 0.625000 0.500000
vt 0.625000 0.250000
vt 0.625000 0.500000
vt 0.625000 0.250000
vt 0.625000 0.250000
vt 0.875000 0.176764
vt 0.875000 0.178317
vt 0.875000 0.179913
vt 0.871101 0.179913
vt 0.625000 0.312389
vt 0.625000 0.312389
vt 0.625000 0.437611
vt 0.625000 0.437611
vt 0.625000 0.312389
vt 0.625000 0.437611
vt 0.625000 0.437611
vt 0.625000 0.452851
vt 0.625001 0.455357
vt 0.386873 67108864.000000
vt 0.624999 0.455357
vt 0.625000 0.455357
vt 0.625000 0.294643
vt 0.625000 0.294643
vt 0.625000 0.294643
vt 0.625000 0.312389
vt 0.125000 0.190767
vt 0.125000 0.000000
vt 0.125000 0.000000
vt 0.125000 0.177572
vt 0.875000 0.004984
vt 0.875000 0.248749
vt 0.625000 0.248749
vt 0.625000 0.004984
vt 0.375000 0.185588
vt 0.375000 0.040524
vt 0.625000 0.501252
vt 0.625000 0.745016
vt 0.375000 0.709476
vt 0.375000 0.564412
vt 0.125000 0.185588
vt 0.125000 0.040524
vt 0.375000 0.250000
vt 0.375000 0.500000
vt 0.375000 0.250000
vt 0.375000 0.500000
vt 0.375000 0.500000
vt 0.375000 0.250000
vt 0.375000 0.250000
vt 0.375000 0.500000
vt 0.625000 0.311210
vt 0.625000 0.311210
vt 0.625000 0.294643
vt 0.625000 0.294643
vt 0.375000 0.000000
vt 0.625000 0.000000
vt 0.625000 0.750000
vt 0.375000 0.750000
vt 0.125000 0.000000
vt 0.125000 0.250000
vt 0.686210 0.234545
vt 0.813790 0.234545
vt 0.813790 0.224029
vt 0.875000 0.000000
vt 0.875000 0.250000
vt 0.625000 1.000000
vt 0.375000 1.000000
vt 0.686210 0.224029
vn 0.000000 0.000000 1.000000
vn 0.000000 0.000000 1.000000
vn 0.000000 0.000000 1.000000
vn 0.000000 0.000000 1.000000
vn 0.000000 0.000000 -1.000000
vn 0.000000 0.000000 -1.000000
vn 0.000000 0.000000 -1.000000
vn 0.000000 0.000000 -1.000000
vn 0.000000 0.000000 1.000000
vn 0.000000 0.000000 1.000000
vn 0.000000 0.000000 1.000000
vn 0.000000 0.000000 1.000000
vn -0.249518 0.968370 0.000000
vn -0.249518 0.968370 0.000000
vn -0.249518 0.968370 0.000000
vn -0.249518 0.968370 0.000000
vn 0.249518 -0.968370 0.000000
vn 0.249518 -0.968370 0.000000
vn 0.249518 -0.968370 0.000000
vn 0.249518 -0.968370 0.000000
vn 0.249518 -0.968370 0.000000
vn 0.249518 -0.968370 0.000000
vn 0.249518 -0.968370 0.000000
vn 0.249518 -0.968370 0.000000
vn 0.249518 -0.968370 0.000000
vn -0.000003 -1.000000 0.000000
vn -0.000003 -1.000000 0.000000
vn -0.000003 -1.000000 0.000000
vn -0.000003 -1.000000 0.000000
vn 0.010521 -0.999945 0.000000
vn 0.010521 -0.999945 0.000000
vn 0.010521 -0.999945 0.000000
vn 0.010521 -0.999945 0.000000
vn -0.010111 0.999949 0.000000
vn -0.010111 0.999949 0.000000
vn -0.010111 0.999949 0.000000
vn -0.010111 0.999949 0.000000
vn 0.000000 0.000000 -1.000000
vn 0.000000 0.000000 -1.000000
vn 0.000000 0.000000 -1.000000
vn 0.000000 0.000000 -1.000000
vn 0.999995 0.003314 0.000000
vn 0.999995 0.003314 0.000000
vn 0.999995 0.003314 0.000000
vn 0.999995 0.003314 0.000000
vn 0.000000 0.000000 1.000000
vn 0.000000 0.000000 1.000000
vn 0.000000 0.000000 1.000000
vn 0.000000 0.000000 1.000000
vn 0.000000 0.000000 -1.000000
vn 0.000000 0.000000 -1.000000
vn 0.000000 0.000000 -1.000000
vn 0.000000 0.000000 -1.000000
vn 0.000000 0.000000 1.000000
vn 0.000000 0.000000 1.000000
vn 0.000000 0.000000 1.000000
vn 0.000000 0.000000 1.000000
vn 0.229884 0.973218 0.000000
vn 0.229884 0.973218 0.000000
vn 0.229884 0.973218 0.000000
vn 0.229884 0.973218 0.000000
vn -0.238138 -0.971231 0.000000
vn -0.238138 -0.971231 0.000000
vn -0.238138 -0.971231 0.000000
vn -0.238138 -0.971231 0.000000
vn -0.000000 0.000000 1.000000
vn -0.000000 0.000000 1.000000
vn -0.000000 0.000000 1.000000
vn -0.000000 0.000000 1.000000
vn 0.000000 0.000000 -1.000000
vn 0.000000 0.000000 -1.000000
vn 0.000000 0.000000 -1.000000
vn 0.000000 0.000000 -1.000000
vn -0.000000 0.000000 -1.000000
vn -0.000000 0.000000 -1.000000
vn -0.709353 -0.704853 0.000000
vn -0.709353 -0.704853 0.000000
vn -0.709353 -0.704853 0.000000
vn -0.709353 -0.704853 0.000000
vn 0.000000 0.000000 1.000000
vn 0.000000 0.000000 1.000000
vn 0.000000 0.000000 -1.000000
vn 0.000000 0.000000 -1.000000
vn 0.000000 0.000000 -1.000000
vn 0.000000 0.000000 -1.000000
vn 0.000000 0.000000 1.000000
vn 0.000000 0.000000 1.000000
vn 0.000000 0.000000 1.000000
vn 0.000000 0.000000 1.000000
vn 0.709353 0.704854 0.000000
vn 0.709353 0.704854 0.000000
vn 0.709353 0.704854 0.000000
vn 0.709353 0.704854 0.000000
vn -0.000000 0.000000 -1.000000
vn -0.000000 0.000000 -1.000000
vn -0.000000 0.000000 -1.000000
vn -0.000000 0.000000 -1.000000
vn -0.261690 -0.965152 0.000000
vn -0.261690 -0.965152 0.000000
vn -0.261690 -0.965152 0.000000
vn -0.261690 -0.965152 0.000000
vn 0.000000 0.000000 -1.000000
vn 0.000000 0.000000 -1.000000
vn 0.000000 0.000000 -1.000000
vn 0.000000 0.000000 -1.000000
vn 0.000000 0.000000 1.000000
vn 0.000000 0.000000 1.000000
vn 0.000000 0.000000 1.000000
vn 0.000000 0.000000 1.000000
vn 0.251534 0.967849 0.000000
vn 0.251534 0.967849 0.000000
vn 0.251534 0.967849 0.000000
vn 0.251534 0.967849 0.000000
vn 0.000000 0.000000 1.000000
vn 0.000000 0.000000 1.000000
vn 0.000000 0.000000 1.000000
vn 0.000000 0.000000 1.000000
vn 0.261690 0.965152 0.000000
vn 0.261690 0.965152 0.000000
vn 0.261690 0.965152 0.000000
vn 0.261690 0.965152 0.000000
vn 1.000000 0.000000 0.000000
vn 1.000000 0.000000 0.000000
vn 1.000000 0.000000 0.000000
vn 1.000000 0.000000 0.000000
vn 0.000000 0.000000 -1.000000
vn 0.000000 0.000000 -1.000000
vn 0.000000 0.000000 -1.000000
vn 0.951847 -0.306573 0.000000
vn 0.951847 -0.306573 0.000000
vn 0.951847 -0.306573 0.000000
vn 0.951847 -0.306573 0.000000
vn 0.951847 -0.306573 0.000000
vn -0.999995 -0.003292 -0.000001
vn -0.999995 -0.003292 0.000000
vn -0.999995 -0.003292 0.000000
vn -0.999995 -0.003292 -0.000000
vn -0.999995 -0.003292 0.000000
vn -0.999995 -0.003292 0.000000
vn -0.999995 -0.003292 -0.000001
vn -0.999995 -0.003292 -0.000001
vn -0.229885 -0.973218 0.000002
vn -0.229885 -0.973218 -0.000004
vn -0.229885 -0.973218 -0.000004
vn -0.229885 -0.973218 -0.000001
vn -0.229885 -0.973218 -0.000000
vn -0.229885 -0.973218 -0.000004
vn -0.229885 -0.973218 -0.000004
vn -0.229885 -0.973218 0.000002
vn -0.229885 -0.973218 -0.000004
vn -0.229885 -0.973218 -0.000004
vn -0.229885 -0.973218 0.000002
vn -0.229885 -0.973218 0.000002
vn -0.229885 -0.973218 0.000002
vn -0.229885 -0.973218 0.000002
vn -0.229885 -0.973218 0.000002
vn -0.229885 -0.973218 0.000002
vn -0.000000 0.000000 -1.000000
vn -0.000000 0.000000 -1.000000
vn 0.241080 -0.970505 0.000000
vn 0.241080 -0.970505 0.000000
vn 0.241080 -0.970505 0.000000
vn 0.241080 -0.970505 0.000000
vn -0.995517 -0.094584 0.000000
vn -0.995517 -0.094584 0.000000
vn -0.995517 -0.094584 0.000000
vn -0.995517 -0.094584 0.000000
vn 0.708358 -0.705853 0.000000
vn 0.708358 -0.705853 0.000000
vn 0.708358 -0.705853 0.000000
vn 0.708358 -0.705853 0.000000
vn 0.000000 0.000000 1.000000
vn 0.000000 0.000000 1.000000
vn 0.000000 0.000000 1.000000
vn 0.000000 0.000000 1.000000
vn 0.000000 0.000000 -1.000000
vn 0.000000 0.000000 -1.000000
vn 0.000000 0.000000 -1.000000
vn 0.000000 0.000000 -1.000000
vn -0.708358 0.705853 0.000000
vn -0.708358 0.705853 0.000000
vn -0.708358 0.705853 0.000000
vn -0.708358 0.705853 0.000000
vn -0.252135 0.967692 0.000000
vn -0.252135 0.967692 0.000000
vn -0.252135 0.967692 0.000000
vn -0.252135 0.967692 0.000000
vn -0.000000 0.000000 1.000000
vn -0.000000 0.000000 1.000000
vn -0.000000 0.000000 1.000000
vn -0.000000 0.000000 1.000000
vn -0.000000 0.000000 -1.000000
vn -0.000000 0.000000 -1.000000
vn -0.000000 0.000000 -1.000000
vn -0.000000 0.000000 -1.000000
vn -0.227887 0.973687 0.000000
vn -0.227887 0.973687 0.000000
vn -0.227887 0.973687 0.000000
vn -0.227887 0.973687 0.000000
vn 0.000000 0.000000 1.000000
vn 0.000000 0.000000 1.000000
vn 0.000000 0.000000 1.000000
vn 0.000000 0.000000 1.000000
vn -0.000000 0.000000 -1.000000
vn -0.000000 0.000000 -1.000000
vn -0.000000 0.000000 -1.000000
vn -0.000000 0.000000 -1.000000
vn 0.227886 -0.973688 0.000000
vn 0.227886 -0.973688 0.000000
vn 0.227886 -0.973688 0.000000
vn 0.227886 -0.973688 0.000000
vn -1.000000 0.000000 0.000000
vn -1.000000 0.000000 0.000000
vn -1.000000 0.000000 0.000000
vn -1.000000 0.000000 0.000000
vn 0.249518 -0.968370 0.000000
vn 0.249518 -0.968370 0.000000
vn 0.249518 -0.968370 0.000000
vn 0.249518 -0.968370 0.000000
vn 0.249518 -0.968370 0.000000
vn 0.000000 0.000000 1.000000
vn 0.000000 0.000000 1.000000
vn 0.000000 0.000000 1.000000
vn 0.000000 0.000000 1.000000
vn 0.000000 0.000000 -1.000000
vn 0.000000 0.000000 -1.000000
vn 0.000000 0.000000 -1.000000
vn 0.000000 0.000000 -1.000000
vn -0.999973 -0.007353 0.000000
vn -0.999973 -0.007353 0.000000
vn -0.999973 -0.007353 0.000000
vn -0.999973 -0.007353 0.000000
vn 0.999973 0.007299 -0.000000
vn 0.999973 0.007299 0.000004
vn 0.999973 0.007299 0.000001
vn 0.999973 0.007299 -0.000001
vn 0.999973 0.007299 0.000004
vn 0.999973 0.007299 0.000002
vn 0.000000 -1.000000 0.000000
vn 0.000000 -1.000000 0.000000
vn 0.000000 -1.000000 0.000000
vn 0.000000 -1.000000 0.000000
vn 0.999973 0.007299 -0.000001
vn 0.999973 0.007299 -0.000001
s 1
g pCube11
usemtl initialShadingGroup
f 1/1/1 2/2/2 3/3/3 4/4/4
s off
f 5/5/5 6/6/6 7/7/7 8/8/8
f 9/9/9 10/10/10 11/11/11 12/12/12
f 6/6/13 9/9/14 12/12/15 7/7/16
s 2
f 13/13/17 14/14/18 15/15/19 16/16/20 17/17/21 18/18/22 5/5/23 8/8/24 11/11/25
s off
f 19/19/26 20/20/27 21/21/28 22/22/29
f 23/23/30 24/24/31 25/25/32 3/26/33
f 13/27/34 26/28/35 27/29/36 14/30/37
f 28/31/38 29/32/39 21/21/40 20/20/41
f 29/32/42 30/33/43 22/22/44 21/21/45
f 30/33/46 31/34/47 19/19/48 22/22/49
f 8/8/50 7/7/51 32/35/52 28/31/53
f 12/12/54 11/11/55 31/34/56 33/36/57
f 7/7/58 12/12/59 33/36/60 32/35/61
f 25/37/62 24/38/63 34/39/64 35/40/65
s 1
f 36/41/66 25/37/67 35/40/68 37/42/69
s 3
f 14/30/70 27/29/71 38/43/72 24/24/73 23/23/74 15/44/75
s off
f 39/45/76 40/46/77 41/47/78 42/48/79
s 1
f 3/3/3 25/37/67 36/41/66 26/28/80 13/27/81 4/4/4
s off
f 43/49/82 44/50/83 42/51/84 41/52/85
f 45/53/86 46/54/87 40/46/88 39/45/89
f 44/55/90 43/56/91 46/54/92 45/53/93
f 28/31/94 32/35/95 47/57/96 29/32/97
f 30/33/98 29/32/99 48/58/100 49/59/101
f 29/32/102 47/57/103 50/60/104 48/58/105
f 33/36/106 31/34/107 30/33/108 51/61/109
f 32/35/110 33/36/111 51/61/112 47/57/113
f 51/61/114 30/33/115 49/59/116 52/62/117
f 47/57/118 51/61/119 52/62/120 50/60/121
f 49/59/122 48/58/123 50/60/124 52/62/125
s 3
f 24/38/73 38/63/72 53/64/126 54/65/127 34/39/128
s off
f 35/40/129 34/39/130 54/65/131 55/66/132 37/42/133
s 4
f 31/34/134 45/67/135 39/68/136 42/69/137 20/20/138 19/19/139
f 31/34/134 28/31/140 20/20/138 42/69/137 44/70/141 45/67/135
s 5
f 11/11/142 46/71/143 43/72/144 41/73/145 55/74/146 54/75/147 53/76/148 8/8/149 28/31/150 31/34/151
f 11/11/142 8/8/149 53/76/148 38/77/152 27/78/153 26/79/154 36/80/155 37/81/156 55/74/146 41/73/145 40/82/157 46/71/143
s 3
f 15/83/75 23/84/74 56/85/158 16/86/159
s off
f 23/84/160 3/3/161 2/2/162 56/85/163
f 16/86/164 56/85/165 2/2/166 1/1/167
f 57/87/168 17/88/169 58/89/170 59/90/171
f 59/90/172 58/89/173 60/91/174 61/92/175
f 17/93/176 57/94/177 62/95/178 18/96/179
f 61/92/180 60/91/181 18/97/182 62/98/183
f 63/99/184 9/9/185 6/6/186 64/100/187
f 65/101/188 10/10/189 9/9/190 63/99/191
f 5/5/192 66/102/193 64/100/194 6/6/195
f 63/99/196 64/100/197 67/103/198 68/104/199
f 65/101/200 63/99/201 68/104/202 69/105/203
f 64/100/204 66/102/205 70/106/206 67/103/207
f 66/102/208 65/101/209 69/105/210 70/106/211
f 70/106/212 69/105/213 68/104/214 67/103/215
s 2
f 10/10/216 5/5/23 18/18/22 60/107/217 58/108/218 17/17/21 16/16/20 1/109/219 4/110/220 13/13/17 11/11/25
s off
f 71/111/221 72/112/222 10/10/223 65/101/224
f 66/102/225 5/5/226 73/113/227 74/114/228
f 74/115/229 71/111/230 65/101/231 66/116/232
s 6
f 61/117/233 62/118/234 57/119/235 73/120/236 5/121/237 10/10/238
s off
f 74/114/239 73/113/240 72/122/241 71/123/242
s 6
f 72/112/243 73/120/236 57/119/235 59/124/244 61/117/233 10/10/238
