{"asset":{"version":"2.0","generator":"babylon.js glTF exporter for maya 2018 v20190805.3"},"scene":0,"scenes":[{"nodes":[0],"extensions":{}}],"nodes":[{"children":[1],"translation":[0.0,0.0,0.0],"rotation":[0.0,0.0,0.0,1.0],"scale":[1.0,1.0,1.0],"name":"group"},{"mesh":0,"translation":[0.0,0.0,0.0],"rotation":[0.0,0.0,0.0,1.0],"scale":[1.0,1.0,1.0],"name":"pasted__pCube40"}],"meshes":[{"primitives":[{"attributes":{"POSITION":1,"NORMAL":2,"TANGENT":3,"TEXCOORD_0":4},"indices":0,"mode":4,"material":0},{"attributes":{"POSITION":6,"NORMAL":7,"TANGENT":8,"TEXCOORD_0":9},"indices":5,"mode":4,"material":1},{"attributes":{"POSITION":11,"NORMAL":12,"TANGENT":13,"TEXCOORD_0":14},"indices":10,"mode":4,"material":2}],"name":"pasted__pCube40"}],"accessors":[{"bufferView":0,"componentType":5125,"count":111,"type":"SCALAR","name":"accessorIndices"},{"bufferView":1,"componentType":5126,"count":47,"max":[20.3410358,-10.3113241,0.8144409],"min":[18.9647884,-10.8922472,-0.8144409],"type":"VEC3","name":"accessorPositions"},{"bufferView":1,"byteOffset":564,"componentType":5126,"count":47,"type":"VEC3","name":"accessorNormals"},{"bufferView":2,"componentType":5126,"count":47,"type":"VEC4","name":"accessorTangents"},{"bufferView":3,"componentType":5126,"count":47,"type":"VEC2","name":"accessorUVs"},{"bufferView":0,"byteOffset":444,"componentType":5125,"count":21636,"type":"SCALAR","name":"accessorIndices"},{"bufferView":1,"byteOffset":1128,"componentType":5126,"count":8740,"max":[19.1916046,10.6849689,0.190817773],"min":[18.9894829,9.800059,-0.1947892],"type":"VEC3","name":"accessorPositions"},{"bufferView":1,"byteOffset":106008,"componentType":5126,"count":8740,"type":"VEC3","name":"accessorNormals"},{"bufferView":2,"byteOffset":752,"componentType":5126,"count":8740,"type":"VEC4","name":"accessorTangents"},{"bufferView":3,"byteOffset":376,"componentType":5126,"count":8740,"type":"VEC2","name":"accessorUVs"},{"bufferView":0,"byteOffset":86988,"componentType":5125,"count":187854,"type":"SCALAR","name":"accessorIndices"},{"bufferView":1,"byteOffset":210888,"componentType":5126,"count":71768,"max":[20.9253654,17.2279739,0.8144409],"min":[-21.0197,-10.8922472,-0.8144409],"type":"VEC3","name":"accessorPositions"},{"bufferView":1,"byteOffset":1072104,"componentType":5126,"count":71768,"type":"VEC3","name":"accessorNormals"},{"bufferView":2,"byteOffset":140592,"componentType":5126,"count":71768,"type":"VEC4","name":"accessorTangents"},{"bufferView":3,"byteOffset":70296,"componentType":5126,"count":71768,"type":"VEC2","name":"accessorUVs"}],"bufferViews":[{"buffer":0,"byteLength":838404,"name":"bufferViewScalar"},{"buffer":0,"byteOffset":838404,"byteLength":1933320,"byteStride":12,"name":"bufferViewFloatVec3"},{"buffer":0,"byteOffset":2771724,"byteLength":1288880,"byteStride":16,"name":"bufferViewFloatVec4"},{"buffer":0,"byteOffset":4060604,"byteLength":644440,"byteStride":8,"name":"bufferViewFloatVec2"}],"buffers":[{"uri":"A-Frame_BASE_LEGS.bin","byteLength":4705044}],"materials":[{"pbrMetallicRoughness":{"baseColorFactor":[0.206081077,0.206081077,0.206081077,1.0],"metallicFactor":0.0,"roughnessFactor":0.450053632},"emissiveFactor":[0.0,0.0,0.0],"alphaMode":"OPAQUE","name":"pasted__Holders"},{"pbrMetallicRoughness":{"baseColorFactor":[0.06418919,0.06418919,0.06418919,1.0],"metallicFactor":0.0,"roughnessFactor":0.240331292},"emissiveFactor":[0.0,0.0,0.0],"alphaMode":"OPAQUE","name":"pasted__phongE1"},{"pbrMetallicRoughness":{"baseColorFactor":[0.2027027,0.2027027,0.2027027,1.0],"metallicFactor":0.0,"roughnessFactor":0.201679826},"emissiveFactor":[0.0,0.0,0.0],"alphaMode":"OPAQUE","name":"pasted__blinn1"}]}